# xmcd
#
# Track frame offsets:
#	150
#	14715
#	38675
#	59075
#	74647
#	89787
#	113152
#	144850
#	164522
#	192002
#	210325
#	234047
#	254422
#	282622
#
# Disc length: 3993 seconds
#
# Revision: 1
# Processed by: cddbd v1.4PL0 Copyright (c) Steve Scherf et al.
# Submitted via: audiograbber 1.80
#
DISCID=d10f970e
DTITLE=Delta Wires - Live in San Francisco
DYEAR=1900
DGENRE=
TTITLE0=Weary Man
TTITLE1=Take Off Your Pajamas
TTITLE2=One More Heartahe
TTITLE3=Too Tired
TTITLE4=Goin' Away
TTITLE5=Treat Her Right
TTITLE6=Dimples
TTITLE7=Don't Want No Woman
TTITLE8=Pass The Peas
TTITLE9=Everyday I Have The Blues
TTITLE10=Ice Cream Man
TTITLE11=Don't Cry No More
TTITLE12=Take Your Hand Outta My Pocket
TTITLE13=Pontiac Blues
EXTD=1998 Mud Slide Records
EXTT0=
EXTT1=
EXTT2=
EXTT3=
EXTT4=
EXTT5=
EXTT6=
EXTT7=
EXTT8=
EXTT9=
EXTT10=
EXTT11=
EXTT12=
EXTT13=
PLAYORDER=
